<svg width="20" height="19" viewBox="0 0 20 19" fill="none" xmlns="http://www.w3.org/2000/svg">
<path fill-rule="evenodd" clip-rule="evenodd" d="M10.2673 0.784358C10.1101 0.787369 9.96029 0.851948 9.85016 0.964225C9.74003 1.0765 9.67835 1.2275 9.67838 1.38477V12.7975C9.67838 12.9567 9.74164 13.1095 9.85423 13.2221C9.96684 13.3347 10.1196 13.3979 10.2788 13.3979C10.438 13.3979 10.5908 13.3347 10.7034 13.2221C10.816 13.1095 10.8792 12.9567 10.8792 12.7975V1.38477C10.8793 1.30502 10.8633 1.22606 10.8325 1.15252C10.8017 1.07896 10.7565 1.0123 10.6996 0.9564C10.6427 0.900503 10.5752 0.856505 10.5012 0.826967C10.4271 0.797429 10.3479 0.78294 10.2681 0.784358H10.2673ZM19.3523 4.2031C19.2738 4.20537 19.1966 4.22292 19.125 4.25478L13.9723 6.55471C13.8669 6.60234 13.7775 6.67936 13.7147 6.77655C13.652 6.87374 13.6186 6.98696 13.6186 7.10263C13.6186 7.2183 13.652 7.33153 13.7147 7.42871C13.7775 7.5259 13.8669 7.60292 13.9723 7.65055L19.125 9.95784C19.2025 9.99268 19.2862 10.0109 19.3711 10.0112C19.5084 10.0108 19.6413 9.96325 19.7478 9.87673C19.8544 9.79012 19.9281 9.66964 19.9565 9.53537C19.9851 9.40109 19.9667 9.2611 19.9044 9.13873C19.8422 9.01635 19.74 8.91899 19.6147 8.86285L15.6891 7.10345L19.6147 5.35061C19.7597 5.28535 19.8728 5.16542 19.9297 5.01699C19.9866 4.86855 19.9825 4.70365 19.9182 4.55826C19.8695 4.44978 19.7898 4.35817 19.689 4.29497C19.5883 4.23176 19.4711 4.19979 19.3523 4.2031ZM0.629063 8.3882C0.712717 8.34859 0.804399 8.32884 0.896945 8.33052V8.33134C1.02776 8.33389 1.15415 8.37911 1.25691 8.46009C1.35966 8.54108 1.43315 8.65342 1.46619 8.78002C2.09462 11.1873 3.50383 13.3181 5.47307 14.8386C7.4423 16.3591 9.8603 17.1835 12.3482 17.1825C12.5075 17.1825 12.6602 17.2458 12.7728 17.3584C12.8854 17.471 12.9486 17.6237 12.9486 17.7829C12.9486 17.9421 12.8854 18.0949 12.7728 18.2075C12.6602 18.3201 12.5075 18.3833 12.3482 18.3833C6.68206 18.3833 1.72866 14.5578 0.304736 9.08104C0.28158 8.99142 0.279458 8.89766 0.298536 8.80708C0.317613 8.71651 0.357374 8.63158 0.414711 8.55891C0.472049 8.48625 0.54541 8.42782 0.629063 8.3882Z" fill="#4EE0A0"/>
</svg>
